inDegrees=no
num_controls=7
num_derivatives=13
num_iterations=77
num_multipliers=7
num_parameters=0
num_slacks=7
num_states=26
objective=0.333908
objective_accelerations=0.037285
objective_balance=0.001309
objective_effort=0.027321
objective_height=0.266522
objective_ligament=0.001471
solver_duration=785.164139
status=Solve_Succeeded
success=true
DataType=double
version=3
OpenSimVersion=4.5
endheader
time	/jointset/ground_pelvis/pelvis_tilt/value	/jointset/ground_pelvis/pelvis_tx/value	/jointset/ground_pelvis/pelvis_ty/value	/jointset/hip_r/hip_flexion_r/value	/jointset/hip_r/hip_adduction_r/value	/jointset/hip_r/hip_rotation_r/value	/jointset/back/lumbar_extension/value	/jointset/patellofemoral_r/patellar_flexion_r/value	/jointset/knee_r/knee_flexion_r/value	/jointset/knee_r/knee_adduction_r/value	/jointset/knee_r/knee_rotation_r/value	/jointset/ankle_r/ankle_angle_r/value	/jointset/subtalar_r/subtalar_angle_r/value	/jointset/ground_pelvis/pelvis_tilt/speed	/jointset/ground_pelvis/pelvis_tx/speed	/jointset/ground_pelvis/pelvis_ty/speed	/jointset/hip_r/hip_flexion_r/speed	/jointset/hip_r/hip_adduction_r/speed	/jointset/hip_r/hip_rotation_r/speed	/jointset/back/lumbar_extension/speed	/jointset/patellofemoral_r/patellar_flexion_r/speed	/jointset/knee_r/knee_flexion_r/speed	/jointset/knee_r/knee_adduction_r/speed	/jointset/knee_r/knee_rotation_r/speed	/jointset/ankle_r/ankle_angle_r/speed	/jointset/subtalar_r/subtalar_angle_r/speed	/forceset/tau_hip_flexion_r	/forceset/tau_hip_adduction_r	/forceset/tau_hip_rotation_r	/forceset/tau_knee_flexion_r	/forceset/tau_ankle_angle_r	/forceset/tau_subtalar_angle_r	/forceset/tau_lumbar_extension	lambda_cid13_p0	lambda_cid14_p0	lambda_cid14_p1	lambda_cid14_p2	lambda_cid14_p3	lambda_cid14_p4	lambda_cid14_p5	/jointset/ground_pelvis/pelvis_tilt/accel	/jointset/ground_pelvis/pelvis_tx/accel	/jointset/ground_pelvis/pelvis_ty/accel	/jointset/hip_r/hip_flexion_r/accel	/jointset/hip_r/hip_adduction_r/accel	/jointset/hip_r/hip_rotation_r/accel	/jointset/back/lumbar_extension/accel	/jointset/patellofemoral_r/patellar_flexion_r/accel	/jointset/knee_r/knee_flexion_r/accel	/jointset/knee_r/knee_adduction_r/accel	/jointset/knee_r/knee_rotation_r/accel	/jointset/ankle_r/ankle_angle_r/accel	/jointset/subtalar_r/subtalar_angle_r/accel	gamma_cid13_p0	gamma_cid14_p0	gamma_cid14_p1	gamma_cid14_p2	gamma_cid14_p3	gamma_cid14_p4	gamma_cid14_p5
1	-0.2870117399401632	-0.009029728921219553	0.62969677413779	1.48167483152355	-0.2381931188597596	-0.08703662091559364	-0.7853975896137086	1.511333817683773	1.511333817683773	-0.1745221597976396	0.1736789097212907	0.4362010877081395	0.1759681834999159	0.07086635970079018	0.006887650505349494	0.01594644408518496	-0.1038904792338702	-0.0007907601702201653	0.0007050454784787919	-2.142410879312501e-05	-0.0165957409197862	-0.01659574091978597	0.006007559433140212	-0.002214906635383985	0.01634923291919222	0.006914402072344409	-0.367747227923175	0.0470710688317134	0.006896967691238359	-0.4295936320565562	-0.04958702631022602	0.001381549372077535	0.3761972637267252	-0.04102122847045545	-68.15515257833893	-15.83677514506859	8.0906101760434	8.504050555881818	-773.3631227514948	53.64320117572783	1.470457796017718	0.1660468373011157	1.870307141461496	-5.725290362072188	0.2060225644704122	-0.3860469880609531	-0.02030837825679771	-5.067225785763448	-5.067225785763462	0.9836764056176048	0.06539262614901131	-0.9998699271888856	-0.1166176669114716	-2.163201765242267e-09	-4.695637848164068e-09	-8.100484034524542e-10	-1.703805462413441e-08	3.782874423767086e-09	-4.362694542473345e-09	-1.771401229532041e-08
1.01	-0.2862298149250463	-0.008952323870692242	0.6299496118331372	1.480349965923943	-0.2381908855320757	-0.08704581656269739	-0.7853968084332409	1.510915306309661	1.510915306309647	-0.1744098075406543	0.1736597276456275	0.4363150640021266	0.1760313601994607	0.08556373214488681	0.008620174080907478	0.03462009460171312	-0.161148101164843	0.001226907381717208	-0.002493975497008498	0.0002977349645037536	-0.06706843575893655	-0.06706843575893619	0.01651433623134125	-0.001625473621525744	0.006500897175888756	0.005727696246854885	-0.3687854732350977	0.04711593990100269	0.006928796073250964	-0.4291735066356644	-0.05015209432041129	0.00143714549857469	0.3774462156518028	-0.04100273570136954	-68.354517601111	-15.83401951775045	8.074730701352062	8.264870338809747	-773.9226033163532	53.62838917785132	1.47614200432351	0.1808772323897101	1.865741547358565	-5.735815699576567	0.1980664639556189	-0.2792970381432966	0.07603926045234964	-5.031577687294835	-5.031577687294833	1.091894558741509	0.05513482599071302	-0.9690850626376096	-0.1186731081709436	5.303216033754143e-09	5.584240679051765e-09	3.40922382405172e-08	3.981862478269135e-08	-2.447847836980874e-10	-1.193350346901451e-08	7.205013310776506e-08
1.02	-0.2852995631783375	-0.008856789161467933	0.6303891555417701	1.478450560586827	-0.2381687900061892	-0.08708549589674117	-0.7853892334197964	1.509993210716297	1.509993210716277	-0.1741908442673099	0.1736463231374916	0.4363322030056423	0.1760828746271903	0.1005317060176943	0.01051358224474889	0.05328764674264377	-0.2187984267344936	0.003181679469667238	-0.005391691906527603	0.00133734245096297	-0.1173125847702417	-0.1173125847702411	0.02732976270234082	-0.001059393128208541	-0.003018225156873037	0.004581947709237246	-0.3698237185470774	0.04716081097027106	0.006960624455283338	-0.4287533812147711	-0.05071716233059302	0.001492741625034184	0.3786951675768266	-0.04099021377244093	-68.56080489644729	-15.8265734415178	8.051360981709088	8.02108267776536	-774.6051154607082	53.65307133112184	1.524578081759975	0.1982237549576881	1.869087466341978	-5.803831089807659	0.1934434716729858	-0.3257860748673295	0.1237813043752011	-5.021516620194458	-5.021516620194452	1.045406340177265	0.06072212204076911	-0.9340272450807713	-0.1084262093371272	1.122240580191177e-08	1.471942465628164e-08	6.429724529128015e-08	8.279365887327798e-08	-6.175080677698924e-09	-1.86425609069061e-08	1.468779809060372e-07
1.03	-0.2842192594928336	-0.008741672354842264	0.6310152423276729	1.475973922271826	-0.238127370610598	-0.0871526098932484	-0.7853670670645682	1.508569477679191	1.508569477679175	-0.173862130310871	0.1736383834802709	0.4362551666563149	0.1761229830984	0.1154764972621796	0.01252120443157089	0.07191857761717717	-0.2764721262678873	0.005101154975247625	-0.007977983462237085	0.003275370290003052	-0.1674296024458377	-0.1674296024458378	0.03846832255927168	-0.0005419020203500941	-0.01239649491689928	0.003432323282827997	-0.3703005476603594	0.04726488382096575	0.007070849188207592	-0.4282928827188046	-0.05134204122866094	0.001515450599390084	0.3794823084760082	-0.04100956693714839	-68.78002597365199	-15.8357972631022	8.03078913191586	8.029654808813179	-774.9877539650497	53.65235585132898	1.471554556257352	0.2037427924146276	1.858420865754965	-5.74056826251724	0.1910588781472559	-0.2170714449374397	0.2557297775015085	-5.006134771283731	-5.006134771283856	1.156371426786675	0.04529188233147976	-0.9408439958301145	-0.1193142641703248	1.712580752893837e-08	2.384292807687901e-08	9.445432091762261e-08	1.256270435218621e-07	-1.212479123176647e-08	-2.534282496226044e-08	2.215534175042601e-07
1.04	-0.2829910829127871	-0.008606137057974207	0.6318273034158687	1.472922261185995	-0.2380667846023194	-0.08724399095513093	-0.7853201371801706	1.506644706379321	1.506644706379323	-0.173420372632194	0.1736352245895551	0.4360841241785056	0.1761513785843705	0.130106284925241	0.01459728029322636	0.09048250720152731	-0.3338029808977732	0.007015002006699769	-0.01024510497853916	0.006290048282358915	-0.2175202373230918	-0.2175202373230927	0.04993850714962374	-0.0001032398255679691	-0.02181945085158128	0.002239350661321434	-0.370777376773726	0.04736895667163686	0.007181073921176986	-0.427832384222835	-0.05196692012672175	0.0015381595737047	0.3802694493751105	-0.04103464993007003	-69.00613141396728	-15.84025393156707	8.00263471770926	8.030664486148931	-775.4948598587496	53.69157745508146	1.461577365475146	0.2119144899244569	1.855687208305328	-5.735262109106166	0.192317776847323	-0.2619520669858718	0.3391113350382625	-5.016240060526031	-5.016240060526033	1.111731286861473	0.04495633942549359	-0.9429644800117666	-0.1170958483565343	2.334013158773565e-08	3.360234744569903e-08	1.289712805362484e-07	1.748110415907785e-07	-1.814193883089696e-08	-3.168512521608394e-08	3.029212482334357e-07
